<svg width="14" height="14" viewBox="0 0 14 14" fill="none" xmlns="http://www.w3.org/2000/svg">
<g id="bi:youtube" clip-path="url(#clip0_5201_24)">
<path id="Vector" d="M6.79303 1.68677H6.86813C7.56169 1.6893 11.0759 1.71461 12.0234 1.96942C12.3099 2.04719 12.5709 2.19877 12.7804 2.40902C12.9899 2.61927 13.1406 2.88083 13.2173 3.16755C13.3026 3.48817 13.3625 3.91258 13.403 4.35049L13.4114 4.43824L13.43 4.65761L13.4367 4.74536C13.4916 5.51655 13.4983 6.2388 13.4992 6.39658V6.45986C13.4983 6.62355 13.4907 7.39474 13.43 8.19799L13.4232 8.28658L13.4156 8.37433C13.3734 8.85696 13.311 9.33621 13.2173 9.68889C13.1408 9.97573 12.9902 10.2374 12.7807 10.4477C12.5711 10.658 12.31 10.8095 12.0234 10.887C11.0447 11.1503 7.32459 11.1688 6.80906 11.1697H6.68925C6.42853 11.1697 5.35022 11.1646 4.21959 11.1258L4.07616 11.1207L4.00275 11.1174L3.85847 11.1115L3.71419 11.1055C2.77762 11.0642 1.88578 10.9975 1.47487 10.8862C1.18841 10.8087 0.927336 10.6573 0.717799 10.4472C0.508261 10.2371 0.357621 9.97557 0.280969 9.68889C0.187312 9.33705 0.124875 8.85696 0.0826875 8.37433L0.0759375 8.28574L0.0691875 8.19799C0.0275464 7.62626 0.00447176 7.05333 0 6.48011L0 6.37633C0.0016875 6.19492 0.0084375 5.56802 0.054 4.87614L0.0599063 4.78924L0.0624375 4.74536L0.0691875 4.65761L0.08775 4.43824L0.0961875 4.35049C0.136688 3.91258 0.196594 3.48733 0.281812 3.16755C0.358335 2.88071 0.508918 2.61904 0.718464 2.40875C0.92801 2.19846 1.18916 2.04696 1.47572 1.96942C1.88662 1.85974 2.77847 1.79224 3.71503 1.75005L3.85847 1.74414L4.00359 1.73908L4.07616 1.73655L4.22044 1.73064C5.02344 1.7048 5.82677 1.69046 6.63019 1.68761H6.79303V1.68677ZM5.4 4.39521V8.46039L8.90747 6.42864L5.4 4.39521Z" fill="white"/>
</g>
<defs>
<clipPath id="clip0_5201_24">
<rect width="13.5" height="13.5" fill="white"/>
</clipPath>
</defs>
</svg>
